<?xml version="1.0" encoding="utf-8"?>
<!-- Generator: Adobe Illustrator 19.0.0, SVG Export Plug-In . SVG Version: 6.00 Build 0)  -->
<svg version="1.1" id="图层_1" xmlns="http://www.w3.org/2000/svg" xmlns:xlink="http://www.w3.org/1999/xlink" x="0px" y="0px"
	 viewBox="0 0 1024 1024" style="enable-background:new 0 0 1024 1024;" xml:space="preserve">
<style type="text/css">
	.st0{fill:#4F6AAF;}
</style>
<g id="XMLID_1098_">
	<g id="XMLID_1099_">
		<path id="XMLID_1121_" class="st0" d="M735,942.9c-13.9,0-27.4-3.4-40.2-10l-163.3-85.9c-12.7-6.6-27.8-6.6-40.4,0l-163.3,85.9
			c-36,18.5-80,9.9-106.3-21c-16.4-19.3-23.3-44.9-18.7-69.9L234,660.3c2.4-14.1-2.3-28.5-12.6-38.5L89.3,493
			c-23.6-22.9-32-57.2-21.8-88.4c10-31.3,37-54,69.5-58.6l182.6-26.5c14.1-2.1,26.4-11,32.7-23.8L434,130.2
			c14.7-29.6,44.2-48,77.3-48c33.1,0,62.6,18.4,77.3,48l81.7,165.4c6.3,12.8,18.5,21.7,32.7,23.8L885.6,346
			c32.5,4.6,59.5,27.4,69.5,58.6c10.2,31.2,1.8,65.5-21.8,88.4L801.3,621.8c-10.3,10-15,24.4-12.6,38.5l31.2,181.8
			c4.4,25.5-2.2,50.3-18.8,69.9C784.7,931.6,760.5,942.9,735,942.9L735,942.9z"/>
	</g>
</g>
</svg>
